<svg id="Layer_1" data-name="Layer 1" xmlns="http://www.w3.org/2000/svg" xmlns:xlink="http://www.w3.org/1999/xlink" viewBox="0 0 500.07 421.6"><defs><style>.cls-1{fill:url(#linear-gradient);}.cls-2{fill:url(#default);}.cls-3{fill:url(#linear-gradient-2);}.cls-4{fill:url(#linear-gradient-3);}.cls-5{fill:url(#linear-gradient-4);}.cls-6{fill:url(#linear-gradient-5);}.cls-7{fill:url(#linear-gradient-6);}.cls-8{fill:url(#linear-gradient-7);}.cls-9{fill:url(#linear-gradient-8);}.cls-10{fill:url(#linear-gradient-9);}.cls-11{fill:url(#linear-gradient-10);}.cls-12{fill:url(#linear-gradient-11);}.cls-13{fill:url(#default-2);}.cls-14{fill:url(#default-3);}.cls-15{fill:url(#default-4);}.cls-16{fill:url(#default-5);}.cls-17{fill:url(#default-6);}.cls-18{fill:url(#default-7);}</style><linearGradient id="linear-gradient" x1="250.2" y1="378.52" x2="750.03" y2="378.52" gradientUnits="userSpaceOnUse"><stop offset="0" stop-color="#e94e1b" stop-opacity="0.5"/><stop offset="1" stop-color="#be1622" stop-opacity="0.5"/></linearGradient><linearGradient id="default" x1="249.97" y1="370.05" x2="749.8" y2="370.05" gradientUnits="userSpaceOnUse"><stop offset="0" stop-color="#e94e1b"/><stop offset="1" stop-color="#be1622"/></linearGradient><linearGradient id="linear-gradient-2" x1="328.65" y1="471.66" x2="671.75" y2="471.66" xlink:href="#linear-gradient"/><linearGradient id="linear-gradient-3" x1="328.49" y1="465.22" x2="671.59" y2="465.22" xlink:href="#default"/><linearGradient id="linear-gradient-4" x1="393.65" y1="543.8" x2="606.84" y2="543.8" xlink:href="#linear-gradient"/><linearGradient id="linear-gradient-5" x1="393.55" y1="539.04" x2="606.74" y2="539.04" xlink:href="#default"/><linearGradient id="linear-gradient-6" x1="294.4" y1="649.58" x2="350.13" y2="649.58" gradientUnits="userSpaceOnUse"><stop offset="0" stop-color="#e94e1b"/><stop offset="1" stop-color="#be1622" stop-opacity="0.5"/></linearGradient><linearGradient id="linear-gradient-7" x1="351.4" y1="663.54" x2="425.9" y2="663.54" xlink:href="#linear-gradient-6"/><linearGradient id="linear-gradient-8" x1="431.54" y1="663.54" x2="506.04" y2="663.54" xlink:href="#linear-gradient-6"/><linearGradient id="linear-gradient-9" x1="514.5" y1="649.58" x2="531.43" y2="649.58" xlink:href="#linear-gradient-6"/><linearGradient id="linear-gradient-10" x1="540.6" y1="649.36" x2="643.32" y2="649.36" xlink:href="#linear-gradient-6"/><linearGradient id="linear-gradient-11" x1="642.33" y1="649.5" x2="717.25" y2="649.5" xlink:href="#linear-gradient-6"/><linearGradient id="default-2" x1="292.4" y1="647.36" x2="348.13" y2="647.36" xlink:href="#default"/><linearGradient id="default-3" x1="349.4" y1="661.33" x2="423.9" y2="661.33" xlink:href="#default"/><linearGradient id="default-4" x1="429.54" y1="661.33" x2="504.04" y2="661.33" xlink:href="#default"/><linearGradient id="default-5" x1="512.5" y1="647.36" x2="529.44" y2="647.36" xlink:href="#default"/><linearGradient id="default-6" x1="538.61" y1="647.15" x2="641.32" y2="647.15" xlink:href="#default"/><linearGradient id="default-7" x1="640.34" y1="647.29" x2="715.26" y2="647.29" xlink:href="#default"/></defs><path class="cls-1" d="M500.12,287.59c-101.35,0-191.08,49.69-246.19,126a19.94,19.94,0,0,0,3.19,26.71l28,24.23h0A20,20,0,0,0,314.48,461a226.68,226.68,0,0,1,371.28,0,19.93,19.93,0,0,0,29.37,3.55h0l28-24.23a19.94,19.94,0,0,0,3.19-26.71C691.19,337.28,601.46,287.59,500.12,287.59Z" transform="translate(-249.97 -279.13)"/><path class="cls-2" d="M499.88,279.13c-101.34,0-191.07,49.68-246.18,126a19.94,19.94,0,0,0,3.19,26.71l28,24.23h0a19.93,19.93,0,0,0,29.37-3.55,226.68,226.68,0,0,1,371.28,0,20,20,0,0,0,29.38,3.55h0l28-24.23a19.94,19.94,0,0,0,3.19-26.71A303,303,0,0,0,499.88,279.13Z" transform="translate(-249.97 -279.13)"/><path class="cls-3" d="M500.2,409.25a208,208,0,0,0-169,86.5,13.68,13.68,0,0,0,2.19,18.33l19.21,16.64h0a13.69,13.69,0,0,0,20.16-2.44,155.6,155.6,0,0,1,254.86,0,13.69,13.69,0,0,0,20.16,2.44h0L667,514.08a13.69,13.69,0,0,0,2.19-18.33A208,208,0,0,0,500.2,409.25Z" transform="translate(-249.97 -279.13)"/><path class="cls-4" d="M500,402.81a208,208,0,0,0-169,86.5,13.68,13.68,0,0,0,2.19,18.33l19.2,16.64h0a13.7,13.7,0,0,0,20.17-2.44,155.58,155.58,0,0,1,254.86,0,13.69,13.69,0,0,0,20.16,2.44h0l19.21-16.64A13.69,13.69,0,0,0,669,489.31,208,208,0,0,0,500,402.81Z" transform="translate(-249.97 -279.13)"/><path class="cls-5" d="M500.25,505a129.26,129.26,0,0,0-105,53.75,8.51,8.51,0,0,0,1.36,11.39l11.94,10.34h0A8.51,8.51,0,0,0,421.07,579a96.69,96.69,0,0,1,158.36,0A8.51,8.51,0,0,0,592,580.5h0l11.93-10.34a8.51,8.51,0,0,0,1.36-11.39A129.25,129.25,0,0,0,500.25,505Z" transform="translate(-249.97 -279.13)"/><path class="cls-6" d="M500.15,500.26a129.26,129.26,0,0,0-105,53.75,8.51,8.51,0,0,0,1.36,11.39l11.94,10.34h0A8.51,8.51,0,0,0,421,574.22a96.69,96.69,0,0,1,158.36,0,8.51,8.51,0,0,0,12.53,1.52h0l11.93-10.34A8.51,8.51,0,0,0,605.15,554,129.25,129.25,0,0,0,500.15,500.26Z" transform="translate(-249.97 -279.13)"/><path class="cls-7" d="M350.13,690.42h0a8.47,8.47,0,0,1-8.46,8.47h-38.8a8.47,8.47,0,0,1-8.47-8.47V608.73a8.47,8.47,0,0,1,8.47-8.47h0a8.47,8.47,0,0,1,8.46,8.47v64.76A8.47,8.47,0,0,0,319.8,682h21.87A8.46,8.46,0,0,1,350.13,690.42Z" transform="translate(-249.97 -279.13)"/><path class="cls-8" d="M407.14,672.08H376.58a3.35,3.35,0,0,0-2.37,5.73l.05.05a19.91,19.91,0,0,0,6.63,4.45,20.49,20.49,0,0,0,7.76,1.48,20.14,20.14,0,0,0,9.07-2,3.26,3.26,0,0,1,2.68-.09l11.48,4.59a3.37,3.37,0,0,1,.95,5.67,36.23,36.23,0,0,1-8.52,5.46,37.35,37.35,0,0,1-50-19.4,37.52,37.52,0,0,1,0-28.93,37.17,37.17,0,0,1,19.82-19.82,37.85,37.85,0,0,1,29.06,0A37.14,37.14,0,0,1,423,649.08a38,38,0,0,1,2.48,20.1,3.38,3.38,0,0,1-3.33,2.9ZM388.65,643.3a20.22,20.22,0,0,0-14.39,5.92l-.26.26a3.36,3.36,0,0,0,2.45,5.67h24.4a3.36,3.36,0,0,0,2.45-5.67l-.26-.26A19.58,19.58,0,0,0,388.65,643.3Z" transform="translate(-249.97 -279.13)"/><path class="cls-9" d="M468.79,626.36a36.57,36.57,0,0,1,14.53,2.9A37,37,0,0,1,506,663.61a36.46,36.46,0,0,1-2.89,14.4,37.23,37.23,0,0,1-19.83,19.82,38,38,0,0,1-29.06,0A37.17,37.17,0,0,1,434.44,678a37.52,37.52,0,0,1,0-28.93,37.17,37.17,0,0,1,19.82-19.82A36.57,36.57,0,0,1,468.79,626.36Zm0,16.94a20.24,20.24,0,0,0-14.39,34.56,18.25,18.25,0,0,0,6.56,4.45,21,21,0,0,0,7.83,1.48,20.49,20.49,0,0,0,7.76-1.48,19.71,19.71,0,0,0,6.63-4.45,20.25,20.25,0,0,0,0-28.64A20.2,20.2,0,0,0,468.79,643.3Z" transform="translate(-249.97 -279.13)"/><path class="cls-10" d="M528.52,698.89h-11.1A2.92,2.92,0,0,1,514.5,696V603.18a2.92,2.92,0,0,1,2.92-2.92h11.1a2.91,2.91,0,0,1,2.91,2.92V696A2.91,2.91,0,0,1,528.52,698.89Z" transform="translate(-249.97 -279.13)"/><path class="cls-11" d="M592,598a50.18,50.18,0,0,1,20,4A51.31,51.31,0,0,1,639.3,629.4a51.59,51.59,0,0,1,0,39.93,51.4,51.4,0,0,1-27.37,27.37,51.59,51.59,0,0,1-39.93,0,51.31,51.31,0,0,1-27.37-27.37,51.47,51.47,0,0,1,0-39.93A51.22,51.22,0,0,1,572,602,50.13,50.13,0,0,1,592,598Zm0,16.93a33.51,33.51,0,0,0-13.12,2.61,35.58,35.58,0,0,0-18.69,18.69,33.54,33.54,0,0,0-2.61,13.12,34,34,0,0,0,2.61,13.19,34.39,34.39,0,0,0,7.54,11.22,33.63,33.63,0,0,0,11.15,7.48A34.37,34.37,0,0,0,592,683.79a34.87,34.87,0,0,0,13.19-2.54,34.38,34.38,0,0,0,18.7-18.7,34.87,34.87,0,0,0,2.54-13.19,34.41,34.41,0,0,0-2.54-13.12,33.64,33.64,0,0,0-7.48-11.14,34.42,34.42,0,0,0-11.22-7.55A34,34,0,0,0,592,614.94Z" transform="translate(-249.97 -279.13)"/><path class="cls-12" d="M714.12,617.05H691.46a3.13,3.13,0,0,0-3.13,3.13v75.58a3.13,3.13,0,0,1-3.13,3.13H674.53a3.13,3.13,0,0,1-3.13-3.13V620.18a3.13,3.13,0,0,0-3.13-3.13h-22.8a3.14,3.14,0,0,1-3.14-3.13V603.25a3.14,3.14,0,0,1,3.14-3.13h68.65a3.13,3.13,0,0,1,3.13,3.13v10.67A3.13,3.13,0,0,1,714.12,617.05Z" transform="translate(-249.97 -279.13)"/><path class="cls-13" d="M348.13,687.67v1.08a7.93,7.93,0,0,1-7.92,7.93H300.33a7.93,7.93,0,0,1-7.93-7.93V606a7.93,7.93,0,0,1,7.93-7.93h1.08a7.93,7.93,0,0,1,7.92,7.93v65.84a7.92,7.92,0,0,0,7.93,7.92h22.95A7.93,7.93,0,0,1,348.13,687.67Z" transform="translate(-249.97 -279.13)"/><path class="cls-14" d="M405.14,669.87H374.58a3.35,3.35,0,0,0-2.37,5.73l.05,0a19.91,19.91,0,0,0,6.63,4.45,20.68,20.68,0,0,0,7.76,1.48,20.14,20.14,0,0,0,9.07-2,3.26,3.26,0,0,1,2.68-.09l11.48,4.59a3.37,3.37,0,0,1,.95,5.67,35.88,35.88,0,0,1-8.52,5.45,38.29,38.29,0,0,1-30.19.43,37.14,37.14,0,0,1-19.82-19.83,36.2,36.2,0,0,1-2.9-14.39,36.6,36.6,0,0,1,2.9-14.53,37.17,37.17,0,0,1,19.82-19.82,37.85,37.85,0,0,1,29.06,0A37.14,37.14,0,0,1,421,646.87a38,38,0,0,1,2.48,20.1,3.38,3.38,0,0,1-3.33,2.9Zm-18.49-28.79A20.23,20.23,0,0,0,372.26,647l-.26.26a3.36,3.36,0,0,0,2.45,5.67h24.4a3.36,3.36,0,0,0,2.45-5.67L401,647A19.59,19.59,0,0,0,386.65,641.08Z" transform="translate(-249.97 -279.13)"/><path class="cls-15" d="M466.79,624.15a36.57,36.57,0,0,1,14.53,2.9,37.23,37.23,0,0,1,19.83,19.82A36.59,36.59,0,0,1,504,661.4a36.2,36.2,0,0,1-2.89,14.39,37.2,37.2,0,0,1-19.83,19.83,38,38,0,0,1-29.06,0,37.14,37.14,0,0,1-19.82-19.83,36.2,36.2,0,0,1-2.9-14.39,36.6,36.6,0,0,1,2.9-14.53,37.17,37.17,0,0,1,19.82-19.82A36.57,36.57,0,0,1,466.79,624.15Zm0,16.93a20.25,20.25,0,0,0-14.39,34.57A18.25,18.25,0,0,0,459,680.1a21.2,21.2,0,0,0,7.83,1.48,20.68,20.68,0,0,0,7.76-1.48,19.71,19.71,0,0,0,6.63-4.45,20.25,20.25,0,0,0,0-28.64A20.21,20.21,0,0,0,466.79,641.08Z" transform="translate(-249.97 -279.13)"/><path class="cls-16" d="M525.34,696.68H516.6a4.11,4.11,0,0,1-4.1-4.1V602.14a4.1,4.1,0,0,1,4.1-4.09h8.74a4.1,4.1,0,0,1,4.1,4.09v90.44A4.11,4.11,0,0,1,525.34,696.68Z" transform="translate(-249.97 -279.13)"/><path class="cls-17" d="M590,595.79a50,50,0,0,1,20,4,51.31,51.31,0,0,1,27.37,27.37,51.59,51.59,0,0,1,0,39.93,51.4,51.4,0,0,1-27.37,27.37,51.59,51.59,0,0,1-39.93,0,51.31,51.31,0,0,1-27.37-27.37,51.59,51.59,0,0,1,0-39.93A51.22,51.22,0,0,1,570,599.82,50,50,0,0,1,590,595.79Zm0,16.94a33.68,33.68,0,0,0-13.12,2.6A35.64,35.64,0,0,0,558.15,634a33.51,33.51,0,0,0-2.61,13.12,34.19,34.19,0,0,0,10.16,24.41A33.64,33.64,0,0,0,576.84,679,34.37,34.37,0,0,0,590,681.58,34.87,34.87,0,0,0,603.15,679a34.38,34.38,0,0,0,18.7-18.7,34.87,34.87,0,0,0,2.54-13.19A34.37,34.37,0,0,0,621.85,634a33.78,33.78,0,0,0-7.48-11.15,34.58,34.58,0,0,0-11.22-7.55A34.17,34.17,0,0,0,590,612.73Z" transform="translate(-249.97 -279.13)"/><path class="cls-18" d="M711.88,614.84H689.71a3.38,3.38,0,0,0-3.38,3.38V693.3a3.38,3.38,0,0,1-3.38,3.38H672.78a3.38,3.38,0,0,1-3.38-3.38V618.22a3.38,3.38,0,0,0-3.38-3.38H643.71a3.37,3.37,0,0,1-3.37-3.38V601.29a3.37,3.37,0,0,1,3.37-3.38h68.17a3.38,3.38,0,0,1,3.38,3.38v10.17A3.38,3.38,0,0,1,711.88,614.84Z" transform="translate(-249.97 -279.13)"/></svg>